<svg width="48" height="68" viewBox="0 0 48 68" fill="none" xmlns="http://www.w3.org/2000/svg">
<path d="M0.096 66.912C0.224 67.104 0.448005 67.2 0.768005 67.2H4.32001C4.89601 67.2 5.28 66.976 5.472 66.528L19.968 38.496L22.6443 33.5L19.968 28.8L5.472 0.672005C5.28 0.224003 4.89601 0 4.32001 0H0.768005C0.256005 0 6.97374e-06 0.224003 6.97374e-06 0.672005C6.97374e-06 0.864002 0.0320001 1.024 0.096 1.152L17.28 33.312C17.408 33.504 17.408 33.696 17.28 33.888L0.096 66.048C-0.032 66.368 -0.032 66.656 0.096 66.912Z" fill="#9FC54E"/>
<path d="M47.6926 66.912C47.5646 67.104 47.3406 67.2 47.0206 67.2H43.4686C42.8926 67.2 42.5086 66.976 42.3166 66.528L27.8206 38.496L25.1442 33.5L27.8206 28.8L42.3166 0.672005C42.5086 0.224003 42.8926 0 43.4686 0H47.0206C47.5326 0 47.7886 0.224003 47.7886 0.672005C47.7886 0.864002 47.7566 1.024 47.6926 1.152L30.5086 33.312C30.3806 33.504 30.3806 33.696 30.5086 33.888L47.6926 66.048C47.8206 66.368 47.8206 66.656 47.6926 66.912Z" fill="#9FC54E"/>
</svg>
