<svg fill="none" preserveAspectRatio="xMidYMid meet" viewBox="0 0 215 69" xmlns="http://www.w3.org/2000/svg">
  <g clip-path="url(#clip0_6_181)">
    <path d="M207.264 1.72807C207.264 1.08807 207.584 0.768066 208.224 0.768066H213.12C213.76 0.768066 214.08 1.08807 214.08 1.72807V67.0081C214.08 67.6481 213.76 67.9681 213.12 67.9681H207.936C207.36 67.9681 206.976 67.7441 206.784 67.2961L181.056 15.9361C180.928 15.8081 180.8 15.7441 180.672 15.7441C180.608 15.7441 180.576 15.8401 180.576 16.0321L180.672 67.0081C180.672 67.6481 180.352 67.9681 179.712 67.9681H174.816C174.176 67.9681 173.856 67.6481 173.856 67.0081V1.72807C173.856 1.08807 174.176 0.768066 174.816 0.768066H180C180.576 0.768066 180.96 0.992069 181.152 1.44007L206.88 52.9921C207.008 53.1201 207.104 53.1841 207.168 53.1841C207.296 53.1841 207.36 53.0881 207.36 52.8961L207.264 1.72807Z" fill="black" />
    <path d="M142.17 68.736C138.266 68.736 134.81 67.936 131.802 66.336C128.858 64.672 126.554 62.368 124.89 59.424C123.29 56.48 122.49 53.088 122.49 49.248V19.584C122.49 15.744 123.29 12.352 124.89 9.408C126.554 6.4 128.858 4.096 131.802 2.496C134.81 0.832001 138.266 0 142.17 0C146.074 0 149.498 0.832001 152.442 2.496C155.45 4.096 157.786 6.4 159.45 9.408C161.114 12.352 161.946 15.744 161.946 19.584V49.248C161.946 53.088 161.114 56.48 159.45 59.424C157.786 62.368 155.45 64.672 152.442 66.336C149.498 67.936 146.074 68.736 142.17 68.736ZM142.17 62.784C146.074 62.784 149.21 61.568 151.578 59.136C153.946 56.704 155.13 53.504 155.13 49.536V19.392C155.13 15.36 153.946 12.128 151.578 9.696C149.21 7.2 146.074 5.952 142.17 5.952C138.33 5.952 135.226 7.2 132.858 9.696C130.49 12.128 129.306 15.36 129.306 19.392V49.536C129.306 53.504 130.49 56.704 132.858 59.136C135.226 61.568 138.33 62.784 142.17 62.784Z" fill="black" />
    <path d="M54.9083 67.968C54.2683 67.968 53.9483 67.648 53.9483 67.008V1.728C53.9483 1.08801 54.2683 0.768005 54.9083 0.768005H59.8043C60.4443 0.768005 60.7643 1.08801 60.7643 1.728V67.008C60.7643 67.648 60.4443 67.968 59.8043 67.968H54.9083Z" fill="black" />
    <path d="M70.4896 67.88C70.6176 68.072 70.8416 68.168 71.1616 68.168H74.7136C75.2896 68.168 75.6736 67.944 75.8656 67.496L90.3616 39.464L93.0379 34.468L90.3616 29.768L75.8656 1.64002C75.6736 1.19202 75.2896 0.968018 74.7136 0.968018H71.1616C70.6496 0.968018 70.3936 1.19202 70.3936 1.64002C70.3936 1.83202 70.4256 1.99202 70.4896 2.12002L87.6736 34.28C87.8016 34.472 87.8016 34.664 87.6736 34.856L70.4896 67.016C70.3616 67.336 70.3616 67.624 70.4896 67.88Z" fill="#9FC54E" />
    <path d="M118.086 67.88C117.958 68.072 117.734 68.168 117.414 68.168H113.862C113.286 68.168 112.902 67.944 112.71 67.496L98.2142 39.464L95.5378 34.468L98.2142 29.768L112.71 1.64002C112.902 1.19202 113.286 0.968018 113.862 0.968018H117.414C117.926 0.968018 118.182 1.19202 118.182 1.64002C118.182 1.83202 118.15 1.99202 118.086 2.12002L100.902 34.28C100.774 34.472 100.774 34.664 100.902 34.856L118.086 67.016C118.214 67.336 118.214 67.624 118.086 67.88Z" fill="#9FC54E" />
    <path d="M33.408 1.728C33.408 1.08801 33.728 0.768005 34.368 0.768005H39.264C39.904 0.768005 40.224 1.08801 40.224 1.728V67.008C40.224 67.648 39.904 67.968 39.264 67.968H34.08C33.504 67.968 33.12 67.744 32.928 67.296L7.2 15.936C7.072 15.808 6.944 15.744 6.816 15.744C6.752 15.744 6.72 15.84 6.72 16.032L6.816 67.008C6.816 67.648 6.496 67.968 5.856 67.968H0.96C0.32 67.968 0 67.648 0 67.008V1.728C0 1.08801 0.32 0.768005 0.96 0.768005H6.144C6.72 0.768005 7.104 0.992008 7.296 1.44001L33.024 52.992C33.152 53.12 33.248 53.184 33.312 53.184C33.44 53.184 33.504 53.088 33.504 52.896L33.408 1.728Z" fill="black" />
  </g>
  <defs>
    <clipPath id="clip0_6_181">
      <rect fill="white" height="68.736" width="214.08" />
    </clipPath>
  </defs>
</svg>
